# xmcd CD database file
#
# Track frame offsets:
#	150
#	9791
#	58013
#	83482
#	118750
#	141434
#	150773
#	219648
#
# Disc length: 3581 seconds
#
# Revision: 1
# Processed by: cddbd v1.5.2PL0 Copyright (c) Steve Scherf et al.
# Submitted via: CDex 1.70beta2
#
DISCID=5c0dfb08
DTITLE=Pat Metheny - The Unity Sessions [CD1]
DYEAR=2016
DGENRE=Jazz
TTITLE0=Adagia
TTITLE1=Sign of the Season
TTITLE2=This Belongs to You
TTITLE3=Roofdogs
TTITLE4=Cherokee
TTITLE5=Genealogy
TTITLE6=On Day One
TTITLE7=Medley
EXTD=disc #1 YEAR: 2016
EXTT0=
EXTT1=
EXTT2=
EXTT3=
EXTT4=
EXTT5=
EXTT6=
EXTT7=
PLAYORDER=
